<?xml version="1.0" encoding="utf-8"?>
<!-- Generator: Adobe Illustrator 18.0.0, SVG Export Plug-In . SVG Version: 6.00 Build 0)  -->
<!DOCTYPE svg PUBLIC "-//W3C//DTD SVG 1.1//EN" "http://www.w3.org/Graphics/SVG/1.1/DTD/svg11.dtd">
<svg version="1.1" id="Calque_1" xmlns="http://www.w3.org/2000/svg" xmlns:xlink="http://www.w3.org/1999/xlink" x="0px" y="0px" height="4209" width="114"
	 viewBox="0 0 115 4206.3" enable-background="new 0 0 115 4206.3" xml:space="preserve">
<g>
	<g>
		<g>
			<defs>
				<rect id="SVGID_1_" x="9.7" y="290.8" width="96.1" height="92.7"/>
			</defs>
			<clipPath id="SVGID_2_">
				<use xlink:href="#SVGID_1_"  overflow="visible"/>
			</clipPath>
			<path clip-path="url(#SVGID_2_)" fill="#585857" d="M104.2,325.1c-0.8-2.4-2.9-4.1-5.5-4.5L74,316.9l-10.7-22.3
				c-1.1-2.4-3.5-3.8-6.2-3.8c-2.7,0-5.1,1.5-6.2,3.8l-10.7,22.3l-24.7,3.7c-2.5,0.4-4.6,2.1-5.5,4.5c-0.8,2.4-0.2,5,1.6,6.8
				l18.1,18.1L25.5,375c-0.4,2.5,0.7,5.1,2.8,6.5c1.2,0.8,2.5,1.2,3.9,1.2c1.1,0,2.3-0.3,3.3-0.8l21.5-11.6l21.5,11.6
				c1,0.6,2.2,0.8,3.3,0.8c1.4,0,2.8-0.4,4-1.2c2.1-1.5,3.2-4,2.8-6.5l-4.2-25.1l18.1-18.1C104.4,330,105,327.4,104.2,325.1
				 M79.6,345.2c-1.5,1.5-2.2,3.6-1.9,5.7l4.2,25.1l-21.5-11.6c-1-0.6-2.2-0.8-3.3-0.8c-1.1,0-2.3,0.3-3.3,0.8L32.3,376l4.2-25.1
				c0.4-2.1-0.3-4.2-1.9-5.7l-18.1-18.1l24.7-3.7c2.3-0.3,4.2-1.7,5.2-3.8l10.7-22.3l10.7,22.3c1,2,2.9,3.4,5.2,3.8l24.7,3.7
				L79.6,345.2z"/>
		</g>
	</g>
</g>
<path fill="none" stroke="#595958" stroke-width="6" stroke-miterlimit="10" d="M38.8,660.2l10.9-15.5l-8.8-6.6l-11.1,15.4
	c0,0-10.3-1.6-10.6,7.6c0,0,0.8,7.3,9.4,4.2c0,0-0.3,10.5,8,6.8C36.5,672,43.8,668.3,38.8,660.2z"/>
<path fill="none" stroke="#595958" stroke-width="6" stroke-miterlimit="10" d="M40.9,638.1c0,0,5.3-11.8,6.2-17.1
	c1.1-6.2,7.7-50.1,35.6-28.7"/>
<path fill="none" stroke="#595958" stroke-width="6" stroke-miterlimit="10" d="M49.7,644.6c0,0,8.9-8.1,14.6-10.8
	c5.7-2.7,45.9-21.7,17.4-42.3"/>
<g>
	<g>
		<g>
			<defs>
				<rect id="SVGID_3_" x="0.1" y="0" width="113.9" height="96.3"/>
			</defs>
			<clipPath id="SVGID_4_">
				<use xlink:href="#SVGID_3_"  overflow="visible"/>
			</clipPath>
			<path clip-path="url(#SVGID_4_)" fill="#595958" d="M111.3,28.7c0,0-4.2,8.9-9.3,12.7c-2.5,1.9-5.3,3.4-7.8,4.5v-0.1
				c0-20.5-17.9-37.1-39.9-37.1c-3.7,0-7.2,0.5-10.6,1.3c-2.1-1.6-5.6-4.2-9.4-7.1C30.9,0.5,26,0,23,0C21.2,0,20,0.2,20,0.2
				s5,4.1,5.7,11.4c0.3,2.8-0.1,6-0.7,9c-3.2,3.2-5.8,6.9-7.6,11c-0.1,0-0.1,0-0.2,0H8.6c-4.7,0-8.6,3.8-8.6,8.6v11.4
				c0,4.7,3.8,8.6,8.6,8.6h8.6c0.1,0,0.1,0,0.2,0c2.7,6,7.1,11.2,12.5,15.1l-4,4c-2.2,2.2-2.2,5.8,0,8.1l4,4c1.1,1.1,2.6,1.7,4,1.7
				c1.5,0,2.9-0.6,4-1.7l9-9.1c2.3,0.4,4.8,0.6,7.2,0.6c4.1,0,8.1-0.6,11.9-1.7l10.1,10.1c1.1,1.1,2.6,1.7,4,1.7s2.9-0.6,4-1.7l4-4
				c2.2-2.2,2.2-5.8,0-8.1l-6.6-6.6c5.9-5.3,10.1-12.2,11.7-20c2.9-0.9,6.5-2.3,9.8-4.7c5.8-4.2,10.9-13.6,10.9-13.6L111.3,28.7z
				 M73,72.1l9.2,9.2c0.6,0.5,0.6,1.4,0,2l-2,2c-0.3,0.3-0.6,0.4-1,0.4c-0.3,0-0.7-0.1-1-0.4L67.7,74.7c-4.1,1.6-8.7,2.5-13.5,2.5
				c-3.1,0-6.2-0.4-9.1-1.1l-9.4,9.4c-0.3,0.3-0.6,0.4-1,0.4s-0.7-0.1-1-0.4l-2-2c-0.6-0.6-0.6-1.5,0-2l7.4-7.4
				C30.6,70.1,24,63,21.4,54.4H8.6c-1.6,0-2.8-1.3-2.8-2.9V40.1c0-1.6,1.3-2.9,2.8-2.9h12.7c1.6-5.1,4.5-9.6,8.4-13.3l1.7-15.2
				L44,15.9c3.3-0.9,6.7-1.5,10.3-1.5c18.9,0,34.2,14.1,34.2,31.4C88.5,56.8,82.4,66.5,73,72.1"/>
		</g>
	</g>
</g>
<g>
	<g>
		<g>
			<defs>
				<rect id="SVGID_5_" x="0.1" y="0" width="114.1" height="96.3"/>
			</defs>
			<clipPath id="SVGID_6_">
				<use xlink:href="#SVGID_5_"  overflow="visible"/>
			</clipPath>
			<path clip-path="url(#SVGID_6_)" fill="#595958" d="M40,34.4c0,3.2-2.6,5.7-5.7,5.7c-3.2,0-5.7-2.6-5.7-5.7
				c0-3.2,2.5-5.7,5.7-5.7C37.5,28.7,40,31.2,40,34.4"/>
		</g>
	</g>
</g>
<g>
	<g>
		<g>
			<defs>
				<rect id="SVGID_7_" x="11.1" y="876.1" width="92" height="92"/>
			</defs>
			<clipPath id="SVGID_8_">
				<use xlink:href="#SVGID_7_"  overflow="visible"/>
			</clipPath>
			<path clip-path="url(#SVGID_8_)" fill="#585857" d="M68.6,876.1c-19,0-34.5,15.4-34.5,34.5c0,5.8,1.5,11.3,4,16.1l-24,24l0,0
				c-1.9,1.8-3,4.4-3,7.2c0,5.6,4.6,10.1,10.1,10.1c2.8,0,5.4-1.2,7.2-3h0l24-24c4.8,2.6,10.3,4,16.1,4c19,0,34.5-15.4,34.5-34.5
				C103.1,891.6,87.7,876.1,68.6,876.1 M24.9,961.5c-0.9,1-2.2,1.6-3.6,1.6c-2.8,0-5.1-2.3-5.1-5.1c0-1.4,0.6-2.7,1.6-3.6l0,0
				l23.2-23.2c2,2.7,4.4,5.2,7.2,7.2L24.9,961.5z M68.6,939.4c-15.9,0-28.7-12.9-28.7-28.7c0-15.9,12.9-28.7,28.7-28.7
				c15.9,0,28.7,12.9,28.7,28.7C97.4,926.5,84.5,939.4,68.6,939.4"/>
		</g>
	</g>
	<g>
		<g>
			<defs>
				<rect id="SVGID_9_" x="11.1" y="876.1" width="92" height="92"/>
			</defs>
			<clipPath id="SVGID_10_">
				<use xlink:href="#SVGID_9_"  overflow="visible"/>
			</clipPath>
			<path clip-path="url(#SVGID_10_)" fill="#585857" d="M68.6,890.5c-11.1,0-20.1,9-20.1,20.1c0,0.8,0.7,1.4,1.5,1.4
				c0.8,0,1.4-0.6,1.4-1.4c0-9.5,7.7-17.3,17.3-17.3c0.8,0,1.4-0.6,1.4-1.4C70.1,891.1,69.4,890.5,68.6,890.5"/>
		</g>
	</g>
</g>
<path fill="none" stroke="#585857" stroke-width="6" stroke-miterlimit="10" d="M98.3,1186.5c-0.1,0-0.2,0-0.3,0v0H75.3
	c0.3,1.3,0.5,2.7,0.5,4.1c0,10-8.1,18.1-18.1,18.1c-10,0-18.1-8.1-18.1-18.1c0-1.4,0.2-2.8,0.5-4.1H17.4v0c-0.1,0-0.2,0-0.3,0
	c-4.2,0-7.7,3.8-7.7,8.6c0,1,0.2,2,0.5,2.9l11,51.2c0.8,3.5,3.6,8.2,7.7,8.2h10h38.2h10c4.1,0,6.8-4.6,7.7-8.2l11-51.2
	c0.3-0.9,0.5-1.9,0.5-2.9C106,1190.3,102.6,1186.5,98.3,1186.5z"/>
<path fill="#595958" d="M62.8,1192c0,2.1-1.7,3.9-3.9,3.9c-2.1,0-3.9-1.7-3.9-3.9c0-2.1,1.7-3.9,3.9-3.9
	C61.1,1188.1,62.8,1189.8,62.8,1192z"/>
<polyline fill="#595958" points="55.1,1192 51.9,1179.2 60.8,1188.5 "/>
<g>
	<path fill="none" stroke="#595958" stroke-width="4" stroke-miterlimit="10" d="M76,1191c0,10.1-8.2,18.3-18.3,18.3
		c-10.1,0-18.3-8.2-18.3-18.3c0-10.1,8.2-18.3,18.3-18.3C67.8,1172.7,76,1180.9,76,1191z"/>
	<path fill="#1F1F1D" stroke="#595958" stroke-width="4" stroke-miterlimit="10" d="M57.7,1210.2c-10.6,0-19.2-8.6-19.2-19.2
		c0-10.6,8.6-19.2,19.2-19.2c10.6,0,19.2,8.6,19.2,19.2C77,1201.6,68.3,1210.2,57.7,1210.2z M57.7,1173.6c-9.6,0-17.3,7.8-17.3,17.3
		c0,9.6,7.8,17.3,17.3,17.3c9.6,0,17.3-7.8,17.3-17.3C75.1,1181.4,67.3,1173.6,57.7,1173.6z"/>
</g>
<g>
	<g>
		<g>
			<defs>
				<rect id="SVGID_11_" x="14.1" y="1461.4" width="84.5" height="92"/>
			</defs>
			<clipPath id="SVGID_12_">
				<use xlink:href="#SVGID_11_"  overflow="visible"/>
			</clipPath>
			<path clip-path="url(#SVGID_12_)" fill="#595958" d="M27.3,1476.8c2,3.4,4.5,6.6,7.5,9.4c0,0-0.1,0.1-0.1,0.1
				c-3.1-2.5-6.1-5.3-8.9-8.4L27.3,1476.8 M22.6,1461.4c-1.5,0-3.2,1.7-2.3,3.6c1.9,4.2,3.8,8.3,6,12c-2.8-3.2-5.4-6.7-7.7-10.2
				c-0.5-0.8-1.2-1.1-1.9-1.1c-1.7,0-3.3,1.7-2.1,3.5c5.2,8,11.5,15.3,19.1,21c-3.9-1.7-8-2.7-12.3-2.7c-0.7,0-1.4,0-2.1,0.1
				c-2.9,0.2-3,4.7-0.2,4.7c0.1,0,0.1,0,0.2,0c0.7-0.1,1.3-0.1,1.9-0.1c3.9,0,7.7,0.9,11.3,2.6c1.1-2,2.3-3.6,3.3-4.6
				c1.1-1.1,2.8-2.5,4.8-3.7c-0.2-0.3-0.4-0.7-0.8-0.9c-7.7-5.8-11.6-14.4-15.4-23C24,1461.8,23.3,1461.4,22.6,1461.4"/>
		</g>
	</g>
	<g>
		<g>
			<defs>
				<rect id="SVGID_13_" x="14.1" y="1461.4" width="84.5" height="92"/>
			</defs>
			<clipPath id="SVGID_14_">
				<use xlink:href="#SVGID_13_"  overflow="visible"/>
			</clipPath>
			<path clip-path="url(#SVGID_14_)" fill="none" stroke="#595958" stroke-width="5" stroke-miterlimit="10" d="M56.2,1527.6
				c0.8-3.2,2.2-6.3,4.6-9.1"/>
		</g>
	</g>
	<g>
		<g>
			<defs>
				<rect id="SVGID_15_" x="14.1" y="1461.4" width="84.5" height="92"/>
			</defs>
			<clipPath id="SVGID_16_">
				<use xlink:href="#SVGID_15_"  overflow="visible"/>
			</clipPath>
			<path clip-path="url(#SVGID_16_)" fill="none" stroke="#595958" stroke-width="5" stroke-miterlimit="10" d="M46.3,1520.4
				c0.6-4.1,2-7.9,5-11.3"/>
		</g>
	</g>
	<g>
		<g>
			<defs>
				<rect id="SVGID_17_" x="14.1" y="1461.4" width="84.5" height="92"/>
			</defs>
			<clipPath id="SVGID_18_">
				<use xlink:href="#SVGID_17_"  overflow="visible"/>
			</clipPath>
			<path clip-path="url(#SVGID_18_)" fill="none" stroke="#595958" stroke-width="5" stroke-miterlimit="10" d="M41.9,1499.7
				c-3.6,4.1-4.9,8.7-5.3,13.7l-2.3-1.7c-2-1.8-3.1-4.1-3.1-6.8c-0.1-3.2,1.2-6.6,2.7-9.4c1-1.7,2-3.1,3-4.1
				c0.7-0.7,2.1-1.9,3.9-3.1c2.8-1.9,6.7-3.9,10.3-3.9c2.5,0,4.5,0.9,6.1,2.7l37.6,54c2.1,2.4,2.6,5,1.6,7.3c-0.9,2-2.8,3.2-5,3.2
				c-1.7,0-3.4-0.7-5-2.2l-25.9-18.8c0,0-13.7-9.8-24.1-17.6"/>
		</g>
	</g>
</g>
<path fill="none" stroke="#595958" stroke-width="6" stroke-miterlimit="10" d="M76.7,16.9c0.6-0.9,1.1-1.9,1.5-3
	c1.4-5-1.5-10.3-6.5-11.7S61.4,3.7,59.9,8.8c-0.3,1.1-0.4,2.2-0.3,3.3L76.7,16.9z"/>
<path fill="none" stroke="#262626" stroke-width="3" stroke-miterlimit="10" d="M134.4,1763.6"/>
<g>
	<path fill="none" stroke="#454545" stroke-width="5.2" stroke-miterlimit="10" d="M58.1,1842c0,0-21.9,0.8-28.9-5.7V1820l1.2-1.4
		l-5.5-18.7c0,0-13.3-10.2-3.3-25.6c0,0,6.8-10,19.5-6.6c0,0,5.1-9.6,17-9.8"/>
	<path fill="none" stroke="#454545" stroke-width="5.2" stroke-miterlimit="10" d="M58.1,1842c0,0,21.9,0.8,28.9-5.7V1820l-1.2-1.4
		l5.5-18.7c0,0,13.3-10.2,3.3-25.6c0,0-6.8-10-19.5-6.6c0,0-5.1-9.6-17-9.8"/>
</g>
<g>
	<path fill="none" stroke="#FFFFFF" stroke-width="5.2" stroke-miterlimit="10" d="M58.1,4173.7c0,0-18.3,0.7-24.1-4.8v-13.5l1-1.2
		l-4.6-15.5c0,0-11.1-8.5-2.7-21.4c0,0,5.6-8.4,16.2-5.5c0,0,4.3-8,14.2-8.2"/>
	<path fill="none" stroke="#FFFFFF" stroke-width="5.2" stroke-miterlimit="10" d="M58.1,4173.7c0,0,18.3,0.7,24.1-4.8v-13.5l-1-1.2
		l4.6-15.5c0,0,11.1-8.5,2.7-21.4c0,0-5.6-8.4-16.2-5.5c0,0-4.3-8-14.2-8.2"/>
</g>
<g>
	<path fill="none" stroke="#454545" stroke-width="5.2" stroke-miterlimit="10" d="M97.9,2093.5c0,4-3.3,7.3-7.3,7.3h-27v27
		c0,4-3.3,7.3-7.3,7.3c-2,0-3.8-0.8-5.1-2.1c-1.3-1.3-2.1-3.1-2.1-5.1v-27h-27c-2,0-3.8-0.8-5.1-2.1c-1.3-1.3-2.1-3.1-2.1-5.1
		c0-4,3.3-7.3,7.3-7.3h27v-27c0-4,3.3-7.3,7.3-7.3c4,0,7.3,3.3,7.3,7.3v27h27C94.7,2086.2,97.9,2089.4,97.9,2093.5L97.9,2093.5z"/>
</g>
<g>
	<path fill="none" stroke="#FFFFFF" stroke-width="4" stroke-miterlimit="10" d="M91,3851.6c0,3.4-2.7,6.1-6.1,6.1H62.4v22.5
		c0,3.3-2.7,6.1-6.1,6.1c-1.7,0-3.2-0.7-4.3-1.8c-1.1-1.1-1.8-2.6-1.8-4.3v-22.5H27.8c-1.7,0-3.2-0.7-4.3-1.8
		c-1.1-1.1-1.8-2.6-1.8-4.3c0-3.3,2.7-6.1,6.1-6.1h22.5V3823c0-3.3,2.7-6.1,6.1-6.1c3.3,0,6.1,2.7,6.1,6.1v22.5h22.5
		C88.3,3845.5,91,3848.2,91,3851.6L91,3851.6z"/>
</g>
<g>
	<path fill="#454545" d="M77.2,2366.1c2,1.9,2,5.1,0,7.1l-13.1,13.1l13.1,13.1c1.9,1.9,1.9,5.1,0,7.1c-1,1-2.3,1.5-3.5,1.5
		c-1.3,0-2.6-0.5-3.5-1.5l-13.1-13.1L44,2406.5c-1,1-2.3,1.5-3.5,1.5c-1.3,0-2.6-0.5-3.5-1.5c-1.9-1.9-1.9-5.1,0-7.1l13.1-13.1
		l-13.1-13.1c-1.9-1.9-1.9-5.1,0-7.1c1.9-1.9,5.1-1.9,7.1,0l13.1,13.1l13.1-13.1C72.1,2364.2,75.3,2364.2,77.2,2366.1L77.2,2366.1z"
		/>
</g>
<g>
	<path fill="none" stroke="#454545" stroke-width="5.2" stroke-miterlimit="10" d="M5.5,2661.5c0,0,37.7-18.3,54,6.1
		c0,0,3-28.1,45.6-30.8l3.8,64.7c0,0-23.2-4.9-37.7,14.1c0,0-18.3-10.7-38.8,5.3L5.5,2661.5z"/>
	<path fill="none" stroke="#454545" stroke-width="5.2" stroke-miterlimit="10" d="M9.1,2660v-19.4c45.6-3.4,50.3,27,50.3,27
		l11.8,47.9"/>
</g>
<g>
	<path fill="none" stroke="#FFFFFF" stroke-width="5.2" stroke-miterlimit="10" d="M14.1,3540.6c0,0,31.4-15.2,45,5.1
		c0,0,2.5-23.5,38-25.7l3.2,53.9c0,0-19.3-4.1-31.4,11.7c0,0-15.2-8.9-32.3,4.4L14.1,3540.6z"/>
	<path fill="none" stroke="#FFFFFF" stroke-width="5.2" stroke-miterlimit="10" d="M17.1,3539.3v-16.2c38-2.9,42,22.5,42,22.5
		l9.8,39.9"/>
</g>
<g>
	<path fill="none" stroke="#454545" stroke-width="4" stroke-miterlimit="10" d="M56.5,2956.4c-8.5,0-15.3,6.9-15.3,15.3
		s6.9,15.3,15.3,15.3c8.5,0,15.3-6.9,15.3-15.3S65,2956.4,56.5,2956.4 M56.5,2984.5c-7.1,0-12.8-5.7-12.8-12.8
		c0-7.1,5.7-12.8,12.8-12.8c7.1,0,12.8,5.7,12.8,12.8C69.3,2978.8,63.6,2984.5,56.5,2984.5"/>
	<path fill="none" stroke="#454545" stroke-width="4" stroke-miterlimit="10" d="M56.5,2929.4c-23.3,0-42.3,19-42.3,42.3
		c0,23.3,19,42.3,42.3,42.3c21.4,0,39.3-15.8,42-36.9h-2.9c-2.7,19.5-19.3,34.1-39.1,34.1c-21.7,0-39.4-17.7-39.4-39.4
		c0-21.7,17.7-39.4,39.4-39.4c19.7,0,36.4,14.6,39.1,34.1h2.9C95.8,2945.2,78,2929.4,56.5,2929.4"/>
	<path fill="none" stroke="#454545" stroke-width="4" stroke-miterlimit="10" d="M56.5,2943.5c-15.5,0-28.2,12.6-28.2,28.2
		s12.6,28.2,28.2,28.2c13.4,0,25.1-9.7,27.6-22.8h-2.9c-2.5,11.6-12.8,19.9-24.7,19.9c-13.9,0-25.3-11.4-25.3-25.3
		c0-14,11.3-25.3,25.3-25.3c11.9,0,22.2,8.3,24.7,19.9h2.9C81.6,2953.2,69.9,2943.5,56.5,2943.5"/>
	<path fill="none" stroke="#454545" stroke-width="4" stroke-miterlimit="10" d="M56.5,2956.4c-8.5,0-15.3,6.9-15.3,15.3
		s6.9,15.3,15.3,15.3c8.5,0,15.3-6.9,15.3-15.3S65,2956.4,56.5,2956.4 M56.5,2984.5c-7.1,0-12.8-5.7-12.8-12.8
		c0-7.1,5.7-12.8,12.8-12.8c7.1,0,12.8,5.7,12.8,12.8C69.3,2978.8,63.6,2984.5,56.5,2984.5"/>
	<path fill="none" stroke="#454545" stroke-width="4" stroke-miterlimit="10" d="M56.5,2943.5c-15.5,0-28.2,12.6-28.2,28.2
		s12.6,28.2,28.2,28.2c13.4,0,25.1-9.7,27.6-22.8h-2.9c-2.5,11.6-12.8,19.9-24.7,19.9c-13.9,0-25.3-11.4-25.3-25.3
		c0-14,11.3-25.3,25.3-25.3c11.9,0,22.2,8.3,24.7,19.9h2.9C81.6,2953.2,69.9,2943.5,56.5,2943.5"/>
</g>
<g>
	<path fill="none" stroke="#FFFFFF" stroke-width="4" stroke-miterlimit="10" d="M56.5,3251.7c-7,0-12.8,5.7-12.8,12.8
		c0,7.1,5.7,12.8,12.8,12.8c7,0,12.8-5.7,12.8-12.8C69.3,3257.5,63.6,3251.7,56.5,3251.7 M56.5,3275.2c-5.9,0-10.7-4.8-10.7-10.7
		c0-5.9,4.8-10.7,10.7-10.7c5.9,0,10.7,4.8,10.7,10.7C67.2,3270.4,62.4,3275.2,56.5,3275.2"/>
	<path fill="none" stroke="#FFFFFF" stroke-width="4" stroke-miterlimit="10" d="M56.5,3229.3c-19.4,0-35.3,15.8-35.3,35.3
		c0,19.4,15.8,35.3,35.3,35.3c17.8,0,32.7-13.2,35-30.8h-2.4c-2.2,16.2-16.1,28.4-32.5,28.4c-18.1,0-32.9-14.7-32.9-32.9
		c0-18.1,14.7-32.9,32.9-32.9c16.4,0,30.3,12.2,32.5,28.4h2.4C89.3,3242.4,74.4,3229.3,56.5,3229.3"/>
	<path fill="none" stroke="#FFFFFF" stroke-width="4" stroke-miterlimit="10" d="M56.5,3241c-13,0-23.5,10.5-23.5,23.5
		c0,13,10.5,23.5,23.5,23.5c11.1,0,20.9-8.1,23-19h-2.4c-2.1,9.7-10.7,16.6-20.6,16.6c-11.6,0-21.1-9.5-21.1-21.1
		c0-11.6,9.5-21.1,21.1-21.1c9.9,0,18.5,7,20.6,16.6h2.4C77.4,3249.1,67.7,3241,56.5,3241"/>
	<path fill="none" stroke="#FFFFFF" stroke-width="4" stroke-miterlimit="10" d="M56.5,3251.7c-7,0-12.8,5.7-12.8,12.8
		c0,7.1,5.7,12.8,12.8,12.8c7,0,12.8-5.7,12.8-12.8C69.3,3257.5,63.6,3251.7,56.5,3251.7 M56.5,3275.2c-5.9,0-10.7-4.8-10.7-10.7
		c0-5.9,4.8-10.7,10.7-10.7c5.9,0,10.7,4.8,10.7,10.7C67.2,3270.4,62.4,3275.2,56.5,3275.2"/>
	<path fill="none" stroke="#FFFFFF" stroke-width="4" stroke-miterlimit="10" d="M56.5,3241c-13,0-23.5,10.5-23.5,23.5
		c0,13,10.5,23.5,23.5,23.5c11.1,0,20.9-8.1,23-19h-2.4c-2.1,9.7-10.7,16.6-20.6,16.6c-11.6,0-21.1-9.5-21.1-21.1
		c0-11.6,9.5-21.1,21.1-21.1c9.9,0,18.5,7,20.6,16.6h2.4C77.4,3249.1,67.7,3241,56.5,3241"/>
</g>
</svg>
